<svg width="50" height="50" viewBox="0 0 50 50" fill="none" xmlns="http://www.w3.org/2000/svg">
<circle cx="25" cy="25" r="25" fill="white"/>
<path d="M27.9347 10.9091L27.4659 31.4489H22.892L22.4375 10.9091H27.9347ZM25.179 40.3125C24.3172 40.3125 23.5786 40.0095 22.9631 39.4034C22.357 38.7973 22.054 38.0587 22.054 37.1875C22.054 36.3352 22.357 35.6061 22.9631 35C23.5786 34.3939 24.3172 34.0909 25.179 34.0909C26.0218 34.0909 26.7509 34.3939 27.3665 35C27.9915 35.6061 28.304 36.3352 28.304 37.1875C28.304 37.7652 28.1572 38.2907 27.8636 38.7642C27.5795 39.2377 27.2008 39.6165 26.7273 39.9006C26.2633 40.1752 25.7472 40.3125 25.179 40.3125Z" fill="#062642"/>
</svg>
